<mxfile host="app.diagrams.net" modified="2022-03-23T10:40:53.660Z" agent="5.0 (Macintosh; Intel Mac OS X 10_15_7) AppleWebKit/537.36 (KHTML, like Gecko) Chrome/99.0.4844.74 Safari/537.36 Edg/99.0.1150.46" etag="ddxU5hvgoKPXcFMuztK-" version="17.1.3" type="github">
  <diagram id="lfYgqpBOch2WVpcmcgR3" name="Page-1">
    <mxGraphModel dx="1395" dy="787" grid="0" gridSize="10" guides="1" tooltips="1" connect="1" arrows="1" fold="1" page="0" pageScale="1" pageWidth="850" pageHeight="1100" math="0" shadow="0">
      <root>
        <mxCell id="0" />
        <mxCell id="1" parent="0" />
        <mxCell id="4CbpwEWaP5cOC91pDzxV-26" value="" style="rounded=1;whiteSpace=wrap;html=1;fontSize=12;fontColor=#666666;dashed=1;fillColor=none;" parent="1" vertex="1">
          <mxGeometry x="1147.5" y="190" width="415" height="377.5" as="geometry" />
        </mxCell>
        <mxCell id="_nOZ630G-RLL8ivHzCJn-2" value="BookingCalendarEvent" style="swimlane;fontStyle=0;childLayout=stackLayout;horizontal=1;startSize=30;horizontalStack=0;resizeParent=1;resizeParentMax=0;resizeLast=0;collapsible=1;marginBottom=0;" parent="1" vertex="1">
          <mxGeometry x="70" y="80" width="230" height="210" as="geometry" />
        </mxCell>
        <mxCell id="_nOZ630G-RLL8ivHzCJn-3" value="BookingID" style="text;strokeColor=none;fillColor=none;align=left;verticalAlign=middle;spacingLeft=4;spacingRight=4;overflow=hidden;points=[[0,0.5],[1,0.5]];portConstraint=eastwest;rotatable=0;" parent="_nOZ630G-RLL8ivHzCJn-2" vertex="1">
          <mxGeometry y="30" width="230" height="30" as="geometry" />
        </mxCell>
        <mxCell id="_nOZ630G-RLL8ivHzCJn-4" value="AppointmentAvailabilityID" style="text;strokeColor=none;fillColor=none;align=left;verticalAlign=middle;spacingLeft=4;spacingRight=4;overflow=hidden;points=[[0,0.5],[1,0.5]];portConstraint=eastwest;rotatable=0;" parent="_nOZ630G-RLL8ivHzCJn-2" vertex="1">
          <mxGeometry y="60" width="230" height="30" as="geometry" />
        </mxCell>
        <mxCell id="_nOZ630G-RLL8ivHzCJn-5" value="AdvisorID" style="text;strokeColor=none;fillColor=none;align=left;verticalAlign=middle;spacingLeft=4;spacingRight=4;overflow=hidden;points=[[0,0.5],[1,0.5]];portConstraint=eastwest;rotatable=0;" parent="_nOZ630G-RLL8ivHzCJn-2" vertex="1">
          <mxGeometry y="90" width="230" height="30" as="geometry" />
        </mxCell>
        <mxCell id="_nOZ630G-RLL8ivHzCJn-10" value="CustomerID" style="text;strokeColor=none;fillColor=none;align=left;verticalAlign=middle;spacingLeft=4;spacingRight=4;overflow=hidden;points=[[0,0.5],[1,0.5]];portConstraint=eastwest;rotatable=0;" parent="_nOZ630G-RLL8ivHzCJn-2" vertex="1">
          <mxGeometry y="120" width="230" height="30" as="geometry" />
        </mxCell>
        <mxCell id="_nOZ630G-RLL8ivHzCJn-11" value="InvoiceID" style="text;strokeColor=none;fillColor=none;align=left;verticalAlign=middle;spacingLeft=4;spacingRight=4;overflow=hidden;points=[[0,0.5],[1,0.5]];portConstraint=eastwest;rotatable=0;" parent="_nOZ630G-RLL8ivHzCJn-2" vertex="1">
          <mxGeometry y="150" width="230" height="30" as="geometry" />
        </mxCell>
        <mxCell id="_nOZ630G-RLL8ivHzCJn-18" value="PaymentType" style="text;strokeColor=none;fillColor=none;align=left;verticalAlign=middle;spacingLeft=4;spacingRight=4;overflow=hidden;points=[[0,0.5],[1,0.5]];portConstraint=eastwest;rotatable=0;" parent="_nOZ630G-RLL8ivHzCJn-2" vertex="1">
          <mxGeometry y="180" width="230" height="30" as="geometry" />
        </mxCell>
        <mxCell id="_nOZ630G-RLL8ivHzCJn-12" value="Invoice" style="swimlane;fontStyle=0;childLayout=stackLayout;horizontal=1;startSize=30;horizontalStack=0;resizeParent=1;resizeParentMax=0;resizeLast=0;collapsible=1;marginBottom=0;" parent="1" vertex="1">
          <mxGeometry x="70" y="360" width="230" height="90" as="geometry" />
        </mxCell>
        <mxCell id="_nOZ630G-RLL8ivHzCJn-13" value="InvoiceID" style="text;strokeColor=none;fillColor=none;align=left;verticalAlign=middle;spacingLeft=4;spacingRight=4;overflow=hidden;points=[[0,0.5],[1,0.5]];portConstraint=eastwest;rotatable=0;" parent="_nOZ630G-RLL8ivHzCJn-12" vertex="1">
          <mxGeometry y="30" width="230" height="30" as="geometry" />
        </mxCell>
        <mxCell id="_nOZ630G-RLL8ivHzCJn-14" value="RecipientInfoJson" style="text;strokeColor=none;fillColor=none;align=left;verticalAlign=middle;spacingLeft=4;spacingRight=4;overflow=hidden;points=[[0,0.5],[1,0.5]];portConstraint=eastwest;rotatable=0;" parent="_nOZ630G-RLL8ivHzCJn-12" vertex="1">
          <mxGeometry y="60" width="230" height="30" as="geometry" />
        </mxCell>
        <mxCell id="_nOZ630G-RLL8ivHzCJn-19" value="Session" style="swimlane;fontStyle=0;childLayout=stackLayout;horizontal=1;startSize=30;horizontalStack=0;resizeParent=1;resizeParentMax=0;resizeLast=0;collapsible=1;marginBottom=0;" parent="1" vertex="1">
          <mxGeometry x="480" y="60" width="230" height="60" as="geometry" />
        </mxCell>
        <mxCell id="_nOZ630G-RLL8ivHzCJn-20" value="SessionID" style="text;strokeColor=none;fillColor=none;align=left;verticalAlign=middle;spacingLeft=4;spacingRight=4;overflow=hidden;points=[[0,0.5],[1,0.5]];portConstraint=eastwest;rotatable=0;" parent="_nOZ630G-RLL8ivHzCJn-19" vertex="1">
          <mxGeometry y="30" width="230" height="30" as="geometry" />
        </mxCell>
        <mxCell id="_nOZ630G-RLL8ivHzCJn-26" value="Participants" style="swimlane;fontStyle=0;childLayout=stackLayout;horizontal=1;startSize=30;horizontalStack=0;resizeParent=1;resizeParentMax=0;resizeLast=0;collapsible=1;marginBottom=0;" parent="1" vertex="1">
          <mxGeometry x="480" y="190" width="230" height="150" as="geometry" />
        </mxCell>
        <mxCell id="_nOZ630G-RLL8ivHzCJn-27" value="SessionID" style="text;strokeColor=none;fillColor=none;align=left;verticalAlign=middle;spacingLeft=4;spacingRight=4;overflow=hidden;points=[[0,0.5],[1,0.5]];portConstraint=eastwest;rotatable=0;" parent="_nOZ630G-RLL8ivHzCJn-26" vertex="1">
          <mxGeometry y="30" width="230" height="30" as="geometry" />
        </mxCell>
        <mxCell id="_nOZ630G-RLL8ivHzCJn-28" value="Identity" style="text;strokeColor=none;fillColor=none;align=left;verticalAlign=middle;spacingLeft=4;spacingRight=4;overflow=hidden;points=[[0,0.5],[1,0.5]];portConstraint=eastwest;rotatable=0;" parent="_nOZ630G-RLL8ivHzCJn-26" vertex="1">
          <mxGeometry y="60" width="230" height="30" as="geometry" />
        </mxCell>
        <mxCell id="_nOZ630G-RLL8ivHzCJn-29" value="StartTime" style="text;strokeColor=none;fillColor=none;align=left;verticalAlign=middle;spacingLeft=4;spacingRight=4;overflow=hidden;points=[[0,0.5],[1,0.5]];portConstraint=eastwest;rotatable=0;" parent="_nOZ630G-RLL8ivHzCJn-26" vertex="1">
          <mxGeometry y="90" width="230" height="30" as="geometry" />
        </mxCell>
        <mxCell id="_nOZ630G-RLL8ivHzCJn-30" value="EndTime" style="text;strokeColor=none;fillColor=none;align=left;verticalAlign=middle;spacingLeft=4;spacingRight=4;overflow=hidden;points=[[0,0.5],[1,0.5]];portConstraint=eastwest;rotatable=0;" parent="_nOZ630G-RLL8ivHzCJn-26" vertex="1">
          <mxGeometry y="120" width="230" height="30" as="geometry" />
        </mxCell>
        <mxCell id="_nOZ630G-RLL8ivHzCJn-32" value="SurveyQuestion" style="swimlane;fontStyle=0;childLayout=stackLayout;horizontal=1;startSize=30;horizontalStack=0;resizeParent=1;resizeParentMax=0;resizeLast=0;collapsible=1;marginBottom=0;" parent="1" vertex="1">
          <mxGeometry x="150" y="500" width="230" height="60" as="geometry" />
        </mxCell>
        <mxCell id="_nOZ630G-RLL8ivHzCJn-33" value="SurveyId" style="text;strokeColor=none;fillColor=none;align=left;verticalAlign=middle;spacingLeft=4;spacingRight=4;overflow=hidden;points=[[0,0.5],[1,0.5]];portConstraint=eastwest;rotatable=0;" parent="_nOZ630G-RLL8ivHzCJn-32" vertex="1">
          <mxGeometry y="30" width="230" height="30" as="geometry" />
        </mxCell>
        <mxCell id="_nOZ630G-RLL8ivHzCJn-34" value="SurveryAnswer" style="swimlane;fontStyle=0;childLayout=stackLayout;horizontal=1;startSize=30;horizontalStack=0;resizeParent=1;resizeParentMax=0;resizeLast=0;collapsible=1;marginBottom=0;" parent="1" vertex="1">
          <mxGeometry x="470" y="500" width="230" height="60" as="geometry" />
        </mxCell>
        <mxCell id="_nOZ630G-RLL8ivHzCJn-35" value="SessionID" style="text;strokeColor=none;fillColor=none;align=left;verticalAlign=middle;spacingLeft=4;spacingRight=4;overflow=hidden;points=[[0,0.5],[1,0.5]];portConstraint=eastwest;rotatable=0;" parent="_nOZ630G-RLL8ivHzCJn-34" vertex="1">
          <mxGeometry y="30" width="230" height="30" as="geometry" />
        </mxCell>
        <mxCell id="_nOZ630G-RLL8ivHzCJn-37" value="Survery" style="swimlane;fontStyle=0;childLayout=stackLayout;horizontal=1;startSize=30;horizontalStack=0;resizeParent=1;resizeParentMax=0;resizeLast=0;collapsible=1;marginBottom=0;" parent="1" vertex="1">
          <mxGeometry x="140" y="660" width="230" height="60" as="geometry" />
        </mxCell>
        <mxCell id="_nOZ630G-RLL8ivHzCJn-38" value="SurveyId" style="text;strokeColor=none;fillColor=none;align=left;verticalAlign=middle;spacingLeft=4;spacingRight=4;overflow=hidden;points=[[0,0.5],[1,0.5]];portConstraint=eastwest;rotatable=0;" parent="_nOZ630G-RLL8ivHzCJn-37" vertex="1">
          <mxGeometry y="30" width="230" height="30" as="geometry" />
        </mxCell>
        <mxCell id="4CbpwEWaP5cOC91pDzxV-5" style="edgeStyle=orthogonalEdgeStyle;orthogonalLoop=1;jettySize=auto;html=1;curved=1;" parent="1" source="4CbpwEWaP5cOC91pDzxV-3" target="4CbpwEWaP5cOC91pDzxV-4" edge="1">
          <mxGeometry relative="1" as="geometry" />
        </mxCell>
        <mxCell id="4CbpwEWaP5cOC91pDzxV-3" value="15 minutes before end meeting" style="ellipse;whiteSpace=wrap;html=1;aspect=fixed;" parent="1" vertex="1">
          <mxGeometry x="975" y="30" width="90" height="90" as="geometry" />
        </mxCell>
        <mxCell id="4CbpwEWaP5cOC91pDzxV-7" value="" style="edgeStyle=orthogonalEdgeStyle;orthogonalLoop=1;jettySize=auto;html=1;curved=1;" parent="1" source="4CbpwEWaP5cOC91pDzxV-4" target="4CbpwEWaP5cOC91pDzxV-6" edge="1">
          <mxGeometry relative="1" as="geometry" />
        </mxCell>
        <mxCell id="4CbpwEWaP5cOC91pDzxV-10" value="yes" style="edgeLabel;html=1;align=center;verticalAlign=middle;resizable=0;points=[];" parent="4CbpwEWaP5cOC91pDzxV-7" vertex="1" connectable="0">
          <mxGeometry x="-0.2333" y="1" relative="1" as="geometry">
            <mxPoint y="1" as="offset" />
          </mxGeometry>
        </mxCell>
        <mxCell id="4CbpwEWaP5cOC91pDzxV-9" value="" style="edgeStyle=orthogonalEdgeStyle;orthogonalLoop=1;jettySize=auto;html=1;curved=1;" parent="1" source="4CbpwEWaP5cOC91pDzxV-4" target="4CbpwEWaP5cOC91pDzxV-8" edge="1">
          <mxGeometry relative="1" as="geometry" />
        </mxCell>
        <mxCell id="4CbpwEWaP5cOC91pDzxV-11" value="no" style="edgeLabel;html=1;align=center;verticalAlign=middle;resizable=0;points=[];" parent="4CbpwEWaP5cOC91pDzxV-9" vertex="1" connectable="0">
          <mxGeometry x="-0.1" y="3" relative="1" as="geometry">
            <mxPoint as="offset" />
          </mxGeometry>
        </mxCell>
        <mxCell id="4CbpwEWaP5cOC91pDzxV-4" value="is Wisory video" style="rhombus;whiteSpace=wrap;html=1;" parent="1" vertex="1">
          <mxGeometry x="945" y="195" width="150" height="90" as="geometry" />
        </mxCell>
        <mxCell id="4CbpwEWaP5cOC91pDzxV-14" value="" style="edgeStyle=orthogonalEdgeStyle;orthogonalLoop=1;jettySize=auto;html=1;curved=1;" parent="1" source="4CbpwEWaP5cOC91pDzxV-6" target="4CbpwEWaP5cOC91pDzxV-13" edge="1">
          <mxGeometry relative="1" as="geometry" />
        </mxCell>
        <mxCell id="4CbpwEWaP5cOC91pDzxV-6" value="wait until session end" style="whiteSpace=wrap;html=1;" parent="1" vertex="1">
          <mxGeometry x="1200" y="210" width="140" height="60" as="geometry" />
        </mxCell>
        <mxCell id="4CbpwEWaP5cOC91pDzxV-22" style="edgeStyle=orthogonalEdgeStyle;orthogonalLoop=1;jettySize=auto;html=1;entryX=0.5;entryY=0;entryDx=0;entryDy=0;fontSize=12;fontColor=#666666;curved=1;" parent="1" source="4CbpwEWaP5cOC91pDzxV-8" target="4CbpwEWaP5cOC91pDzxV-21" edge="1">
          <mxGeometry relative="1" as="geometry">
            <Array as="points">
              <mxPoint x="1020" y="510" />
              <mxPoint x="1125" y="510" />
            </Array>
          </mxGeometry>
        </mxCell>
        <mxCell id="4CbpwEWaP5cOC91pDzxV-8" value="Auto send survey email to advisor and user" style="whiteSpace=wrap;html=1;" parent="1" vertex="1">
          <mxGeometry x="960" y="402.5" width="120" height="60" as="geometry" />
        </mxCell>
        <mxCell id="4CbpwEWaP5cOC91pDzxV-23" style="edgeStyle=orthogonalEdgeStyle;orthogonalLoop=1;jettySize=auto;html=1;entryX=0.5;entryY=0;entryDx=0;entryDy=0;fontSize=12;fontColor=#666666;curved=1;" parent="1" source="4CbpwEWaP5cOC91pDzxV-13" target="4CbpwEWaP5cOC91pDzxV-21" edge="1">
          <mxGeometry relative="1" as="geometry">
            <Array as="points">
              <mxPoint x="1270" y="510" />
              <mxPoint x="1125" y="510" />
            </Array>
          </mxGeometry>
        </mxCell>
        <mxCell id="4CbpwEWaP5cOC91pDzxV-13" value="trigger In-App survey" style="whiteSpace=wrap;html=1;" parent="1" vertex="1">
          <mxGeometry x="1200" y="402.5" width="140" height="60" as="geometry" />
        </mxCell>
        <mxCell id="4CbpwEWaP5cOC91pDzxV-15" value="&lt;font style=&quot;font-size: 12px&quot;&gt;embedded&amp;nbsp;script in&lt;br&gt;&amp;nbsp;video FE, trigger base on condition (url)&lt;/font&gt;" style="strokeWidth=1;shadow=0;dashed=0;align=center;html=1;shape=mxgraph.mockup.text.stickyNote2;fontColor=#666666;mainText=;fontSize=10;whiteSpace=wrap;fillColor=#ffffcc;strokeColor=#F62E00;" parent="1" vertex="1">
          <mxGeometry x="1275" y="462.5" width="160" height="115" as="geometry" />
        </mxCell>
        <mxCell id="4CbpwEWaP5cOC91pDzxV-17" value="&lt;font style=&quot;font-size: 12px&quot;&gt;custom params&amp;nbsp;&lt;br&gt;booking_id&lt;/font&gt;" style="strokeWidth=1;shadow=0;dashed=0;align=center;html=1;shape=mxgraph.mockup.text.stickyNote2;fontColor=#666666;mainText=;fontSize=17;whiteSpace=wrap;fillColor=#ffffcc;strokeColor=#F62E00;" parent="1" vertex="1">
          <mxGeometry x="830" y="370" width="130" height="130" as="geometry" />
        </mxCell>
        <mxCell id="4CbpwEWaP5cOC91pDzxV-18" value="&lt;font style=&quot;font-size: 12px&quot;&gt;custom params&amp;nbsp;&lt;br&gt;booking_id&lt;br&gt;session_id&lt;br&gt;&lt;/font&gt;" style="strokeWidth=1;shadow=0;dashed=0;align=center;html=1;shape=mxgraph.mockup.text.stickyNote2;fontColor=#666666;mainText=;fontSize=17;whiteSpace=wrap;fillColor=#ffffcc;strokeColor=#F62E00;" parent="1" vertex="1">
          <mxGeometry x="1400" y="355" width="110" height="107.5" as="geometry" />
        </mxCell>
        <mxCell id="4CbpwEWaP5cOC91pDzxV-21" value="" style="shape=sumEllipse;perimeter=ellipsePerimeter;whiteSpace=wrap;html=1;backgroundOutline=1;fontSize=12;fontColor=#666666;" parent="1" vertex="1">
          <mxGeometry x="1110" y="560" width="30" height="30" as="geometry" />
        </mxCell>
        <mxCell id="jTlIyfF6Z50imKtyUBh5-2" value="&lt;span style=&quot;font-size: 12px&quot;&gt;Future&lt;/span&gt;" style="strokeWidth=1;shadow=0;dashed=0;align=center;html=1;shape=mxgraph.mockup.text.stickyNote2;fontColor=#666666;mainText=;fontSize=17;whiteSpace=wrap;fillColor=#ffffcc;strokeColor=#F62E00;" vertex="1" parent="1">
          <mxGeometry x="1180" y="120" width="90" height="70" as="geometry" />
        </mxCell>
        <mxCell id="jTlIyfF6Z50imKtyUBh5-6" style="edgeStyle=orthogonalEdgeStyle;rounded=0;orthogonalLoop=1;jettySize=auto;html=1;entryX=0.5;entryY=0;entryDx=0;entryDy=0;dashed=1;" edge="1" parent="1" source="jTlIyfF6Z50imKtyUBh5-3" target="jTlIyfF6Z50imKtyUBh5-5">
          <mxGeometry relative="1" as="geometry" />
        </mxCell>
        <mxCell id="jTlIyfF6Z50imKtyUBh5-7" value="webhook" style="edgeLabel;html=1;align=center;verticalAlign=middle;resizable=0;points=[];" vertex="1" connectable="0" parent="jTlIyfF6Z50imKtyUBh5-6">
          <mxGeometry x="-0.2849" relative="1" as="geometry">
            <mxPoint x="1" as="offset" />
          </mxGeometry>
        </mxCell>
        <mxCell id="jTlIyfF6Z50imKtyUBh5-3" value="user submit the survey" style="ellipse;whiteSpace=wrap;html=1;aspect=fixed;" vertex="1" parent="1">
          <mxGeometry x="975" y="730" width="90" height="90" as="geometry" />
        </mxCell>
        <mxCell id="jTlIyfF6Z50imKtyUBh5-9" style="edgeStyle=orthogonalEdgeStyle;rounded=0;orthogonalLoop=1;jettySize=auto;html=1;" edge="1" parent="1" source="jTlIyfF6Z50imKtyUBh5-5" target="jTlIyfF6Z50imKtyUBh5-8">
          <mxGeometry relative="1" as="geometry" />
        </mxCell>
        <mxCell id="jTlIyfF6Z50imKtyUBh5-10" value="forward" style="edgeLabel;html=1;align=center;verticalAlign=middle;resizable=0;points=[];" vertex="1" connectable="0" parent="jTlIyfF6Z50imKtyUBh5-9">
          <mxGeometry x="-0.339" y="2" relative="1" as="geometry">
            <mxPoint x="26" y="2" as="offset" />
          </mxGeometry>
        </mxCell>
        <mxCell id="jTlIyfF6Z50imKtyUBh5-5" value="wisory event relay" style="rounded=0;whiteSpace=wrap;html=1;" vertex="1" parent="1">
          <mxGeometry x="1215" y="820" width="120" height="60" as="geometry" />
        </mxCell>
        <mxCell id="jTlIyfF6Z50imKtyUBh5-12" style="edgeStyle=orthogonalEdgeStyle;rounded=0;orthogonalLoop=1;jettySize=auto;html=1;entryX=0;entryY=0.5;entryDx=0;entryDy=0;" edge="1" parent="1" source="jTlIyfF6Z50imKtyUBh5-8" target="jTlIyfF6Z50imKtyUBh5-11">
          <mxGeometry relative="1" as="geometry" />
        </mxCell>
        <mxCell id="jTlIyfF6Z50imKtyUBh5-14" style="edgeStyle=orthogonalEdgeStyle;rounded=0;orthogonalLoop=1;jettySize=auto;html=1;" edge="1" parent="1" source="jTlIyfF6Z50imKtyUBh5-8" target="jTlIyfF6Z50imKtyUBh5-13">
          <mxGeometry relative="1" as="geometry" />
        </mxCell>
        <mxCell id="jTlIyfF6Z50imKtyUBh5-15" value="subscribe" style="edgeLabel;html=1;align=center;verticalAlign=middle;resizable=0;points=[];" vertex="1" connectable="0" parent="jTlIyfF6Z50imKtyUBh5-14">
          <mxGeometry x="-0.1753" y="-3" relative="1" as="geometry">
            <mxPoint as="offset" />
          </mxGeometry>
        </mxCell>
        <mxCell id="jTlIyfF6Z50imKtyUBh5-8" value="" style="sketch=0;points=[[0,0,0],[0.25,0,0],[0.5,0,0],[0.75,0,0],[1,0,0],[0,1,0],[0.25,1,0],[0.5,1,0],[0.75,1,0],[1,1,0],[0,0.25,0],[0,0.5,0],[0,0.75,0],[1,0.25,0],[1,0.5,0],[1,0.75,0]];outlineConnect=0;fontColor=#232F3E;gradientColor=#945DF2;gradientDirection=north;fillColor=#5A30B5;strokeColor=#ffffff;dashed=0;verticalLabelPosition=bottom;verticalAlign=top;align=center;html=1;fontSize=12;fontStyle=0;aspect=fixed;shape=mxgraph.aws4.resourceIcon;resIcon=mxgraph.aws4.managed_streaming_for_kafka;" vertex="1" parent="1">
          <mxGeometry x="1484.5" y="811" width="78" height="78" as="geometry" />
        </mxCell>
        <mxCell id="jTlIyfF6Z50imKtyUBh5-11" value="eventstore (built-in in K)" style="shape=datastore;whiteSpace=wrap;html=1;" vertex="1" parent="1">
          <mxGeometry x="1560" y="700" width="70" height="80" as="geometry" />
        </mxCell>
        <mxCell id="jTlIyfF6Z50imKtyUBh5-23" style="edgeStyle=orthogonalEdgeStyle;rounded=0;orthogonalLoop=1;jettySize=auto;html=1;entryX=0;entryY=0.5;entryDx=0;entryDy=0;" edge="1" parent="1" source="jTlIyfF6Z50imKtyUBh5-13" target="jTlIyfF6Z50imKtyUBh5-16">
          <mxGeometry relative="1" as="geometry" />
        </mxCell>
        <mxCell id="jTlIyfF6Z50imKtyUBh5-13" value="wisory service" style="rounded=0;whiteSpace=wrap;html=1;" vertex="1" parent="1">
          <mxGeometry x="1463.5" y="990" width="120" height="60" as="geometry" />
        </mxCell>
        <mxCell id="jTlIyfF6Z50imKtyUBh5-22" value="" style="group" vertex="1" connectable="0" parent="1">
          <mxGeometry x="1670" y="990" width="140" height="80" as="geometry" />
        </mxCell>
        <mxCell id="jTlIyfF6Z50imKtyUBh5-16" value="EventHandlers" style="rounded=0;whiteSpace=wrap;html=1;" vertex="1" parent="jTlIyfF6Z50imKtyUBh5-22">
          <mxGeometry width="120" height="60" as="geometry" />
        </mxCell>
        <mxCell id="jTlIyfF6Z50imKtyUBh5-19" value="EventHandlers" style="rounded=0;whiteSpace=wrap;html=1;" vertex="1" parent="jTlIyfF6Z50imKtyUBh5-22">
          <mxGeometry x="10" y="10" width="120" height="60" as="geometry" />
        </mxCell>
        <mxCell id="jTlIyfF6Z50imKtyUBh5-20" value="EventHandlers" style="rounded=0;whiteSpace=wrap;html=1;" vertex="1" parent="jTlIyfF6Z50imKtyUBh5-22">
          <mxGeometry x="20" y="20" width="120" height="60" as="geometry" />
        </mxCell>
        <mxCell id="jTlIyfF6Z50imKtyUBh5-24" style="edgeStyle=orthogonalEdgeStyle;rounded=0;orthogonalLoop=1;jettySize=auto;html=1;entryX=0.5;entryY=0;entryDx=0;entryDy=0;dashed=1;" edge="1" source="jTlIyfF6Z50imKtyUBh5-26" target="jTlIyfF6Z50imKtyUBh5-29" parent="1">
          <mxGeometry relative="1" as="geometry" />
        </mxCell>
        <mxCell id="jTlIyfF6Z50imKtyUBh5-25" value="webhook" style="edgeLabel;html=1;align=center;verticalAlign=middle;resizable=0;points=[];" vertex="1" connectable="0" parent="jTlIyfF6Z50imKtyUBh5-24">
          <mxGeometry x="-0.2849" relative="1" as="geometry">
            <mxPoint x="1" as="offset" />
          </mxGeometry>
        </mxCell>
        <mxCell id="jTlIyfF6Z50imKtyUBh5-26" value="user submit the survey" style="ellipse;whiteSpace=wrap;html=1;aspect=fixed;" vertex="1" parent="1">
          <mxGeometry x="960" y="1130" width="90" height="90" as="geometry" />
        </mxCell>
        <mxCell id="jTlIyfF6Z50imKtyUBh5-42" style="edgeStyle=orthogonalEdgeStyle;rounded=0;orthogonalLoop=1;jettySize=auto;html=1;entryX=0;entryY=0.5;entryDx=0;entryDy=0;" edge="1" parent="1" source="jTlIyfF6Z50imKtyUBh5-29" target="jTlIyfF6Z50imKtyUBh5-38">
          <mxGeometry relative="1" as="geometry">
            <Array as="points">
              <mxPoint x="1485" y="1260" />
              <mxPoint x="1485" y="1230" />
            </Array>
          </mxGeometry>
        </mxCell>
        <mxCell id="jTlIyfF6Z50imKtyUBh5-29" value="wisory service (public endpoint)" style="rounded=0;whiteSpace=wrap;html=1;" vertex="1" parent="1">
          <mxGeometry x="1200" y="1220" width="120" height="60" as="geometry" />
        </mxCell>
        <mxCell id="jTlIyfF6Z50imKtyUBh5-30" style="edgeStyle=orthogonalEdgeStyle;rounded=0;orthogonalLoop=1;jettySize=auto;html=1;entryX=0;entryY=0.5;entryDx=0;entryDy=0;" edge="1" source="jTlIyfF6Z50imKtyUBh5-29" target="jTlIyfF6Z50imKtyUBh5-34" parent="1">
          <mxGeometry relative="1" as="geometry">
            <mxPoint x="1508.5294117647059" y="1211" as="sourcePoint" />
            <Array as="points">
              <mxPoint x="1349" y="1240" />
              <mxPoint x="1349" y="1140" />
            </Array>
          </mxGeometry>
        </mxCell>
        <mxCell id="jTlIyfF6Z50imKtyUBh5-34" value="eventstore&amp;nbsp;" style="shape=datastore;whiteSpace=wrap;html=1;" vertex="1" parent="1">
          <mxGeometry x="1378.5" y="1100" width="70" height="80" as="geometry" />
        </mxCell>
        <mxCell id="jTlIyfF6Z50imKtyUBh5-37" value="" style="group" vertex="1" connectable="0" parent="1">
          <mxGeometry x="1540" y="1200" width="140" height="80" as="geometry" />
        </mxCell>
        <mxCell id="jTlIyfF6Z50imKtyUBh5-38" value="EventHandlers" style="rounded=0;whiteSpace=wrap;html=1;" vertex="1" parent="jTlIyfF6Z50imKtyUBh5-37">
          <mxGeometry width="120" height="60" as="geometry" />
        </mxCell>
        <mxCell id="jTlIyfF6Z50imKtyUBh5-39" value="EventHandlers" style="rounded=0;whiteSpace=wrap;html=1;" vertex="1" parent="jTlIyfF6Z50imKtyUBh5-37">
          <mxGeometry x="10" y="10" width="120" height="60" as="geometry" />
        </mxCell>
        <mxCell id="jTlIyfF6Z50imKtyUBh5-40" value="EventHandlers" style="rounded=0;whiteSpace=wrap;html=1;" vertex="1" parent="jTlIyfF6Z50imKtyUBh5-37">
          <mxGeometry x="20" y="20" width="120" height="60" as="geometry" />
        </mxCell>
        <mxCell id="jTlIyfF6Z50imKtyUBh5-43" style="edgeStyle=orthogonalEdgeStyle;rounded=0;orthogonalLoop=1;jettySize=auto;html=1;entryX=0.5;entryY=0;entryDx=0;entryDy=0;dashed=1;startArrow=none;" edge="1" source="jTlIyfF6Z50imKtyUBh5-58" parent="1">
          <mxGeometry relative="1" as="geometry">
            <mxPoint x="1245" y="1490" as="targetPoint" />
          </mxGeometry>
        </mxCell>
        <mxCell id="jTlIyfF6Z50imKtyUBh5-45" value="user submit the survey" style="ellipse;whiteSpace=wrap;html=1;aspect=fixed;" vertex="1" parent="1">
          <mxGeometry x="945" y="1400" width="90" height="90" as="geometry" />
        </mxCell>
        <mxCell id="jTlIyfF6Z50imKtyUBh5-48" style="edgeStyle=orthogonalEdgeStyle;rounded=0;orthogonalLoop=1;jettySize=auto;html=1;" edge="1" target="jTlIyfF6Z50imKtyUBh5-55" parent="1">
          <mxGeometry relative="1" as="geometry">
            <mxPoint x="1305" y="1510.0588235294117" as="sourcePoint" />
            <mxPoint x="1363.5" y="1410" as="targetPoint" />
            <Array as="points">
              <mxPoint x="1305" y="1490" />
              <mxPoint x="1370" y="1490" />
              <mxPoint x="1370" y="1410" />
            </Array>
          </mxGeometry>
        </mxCell>
        <mxCell id="jTlIyfF6Z50imKtyUBh5-54" value="wisory event relay" style="rounded=0;whiteSpace=wrap;html=1;" vertex="1" parent="1">
          <mxGeometry x="1210" y="1460" width="120" height="60" as="geometry" />
        </mxCell>
        <mxCell id="jTlIyfF6Z50imKtyUBh5-63" style="edgeStyle=orthogonalEdgeStyle;rounded=0;orthogonalLoop=1;jettySize=auto;html=1;entryX=0;entryY=0.48;entryDx=0;entryDy=0;entryPerimeter=0;" edge="1" parent="1" source="jTlIyfF6Z50imKtyUBh5-55" target="jTlIyfF6Z50imKtyUBh5-62">
          <mxGeometry relative="1" as="geometry" />
        </mxCell>
        <mxCell id="jTlIyfF6Z50imKtyUBh5-72" value="publish" style="edgeLabel;html=1;align=center;verticalAlign=middle;resizable=0;points=[];" vertex="1" connectable="0" parent="jTlIyfF6Z50imKtyUBh5-63">
          <mxGeometry x="0.0469" y="4" relative="1" as="geometry">
            <mxPoint as="offset" />
          </mxGeometry>
        </mxCell>
        <mxCell id="jTlIyfF6Z50imKtyUBh5-55" value="S3" style="sketch=0;points=[[0,0,0],[0.25,0,0],[0.5,0,0],[0.75,0,0],[1,0,0],[0,1,0],[0.25,1,0],[0.5,1,0],[0.75,1,0],[1,1,0],[0,0.25,0],[0,0.5,0],[0,0.75,0],[1,0.25,0],[1,0.5,0],[1,0.75,0]];outlineConnect=0;fontColor=#232F3E;gradientColor=#60A337;gradientDirection=north;fillColor=#277116;strokeColor=#ffffff;dashed=0;verticalLabelPosition=bottom;verticalAlign=top;align=center;html=1;fontSize=12;fontStyle=0;aspect=fixed;shape=mxgraph.aws4.resourceIcon;resIcon=mxgraph.aws4.s3;" vertex="1" parent="1">
          <mxGeometry x="1470" y="1370" width="78" height="78" as="geometry" />
        </mxCell>
        <mxCell id="jTlIyfF6Z50imKtyUBh5-56" value="" style="outlineConnect=0;dashed=0;verticalLabelPosition=bottom;verticalAlign=top;align=center;html=1;shape=mxgraph.aws3.api_gateway;fillColor=#D9A741;gradientColor=none;" vertex="1" parent="1">
          <mxGeometry x="1180" y="825" width="40" height="50" as="geometry" />
        </mxCell>
        <mxCell id="jTlIyfF6Z50imKtyUBh5-58" value="" style="outlineConnect=0;dashed=0;verticalLabelPosition=bottom;verticalAlign=top;align=center;html=1;shape=mxgraph.aws3.api_gateway;fillColor=#D9A741;gradientColor=none;" vertex="1" parent="1">
          <mxGeometry x="1170" y="1470" width="40" height="50" as="geometry" />
        </mxCell>
        <mxCell id="jTlIyfF6Z50imKtyUBh5-59" value="" style="edgeStyle=orthogonalEdgeStyle;rounded=0;orthogonalLoop=1;jettySize=auto;html=1;entryX=0.5;entryY=0;entryDx=0;entryDy=0;dashed=1;endArrow=none;" edge="1" parent="1" source="jTlIyfF6Z50imKtyUBh5-45" target="jTlIyfF6Z50imKtyUBh5-58">
          <mxGeometry relative="1" as="geometry">
            <mxPoint x="1035" y="1445" as="sourcePoint" />
            <mxPoint x="1245" y="1490" as="targetPoint" />
          </mxGeometry>
        </mxCell>
        <mxCell id="jTlIyfF6Z50imKtyUBh5-60" value="webhook" style="edgeLabel;html=1;align=center;verticalAlign=middle;resizable=0;points=[];" vertex="1" connectable="0" parent="jTlIyfF6Z50imKtyUBh5-59">
          <mxGeometry x="-0.2849" relative="1" as="geometry">
            <mxPoint x="1" as="offset" />
          </mxGeometry>
        </mxCell>
        <mxCell id="jTlIyfF6Z50imKtyUBh5-74" style="edgeStyle=orthogonalEdgeStyle;rounded=0;orthogonalLoop=1;jettySize=auto;html=1;entryX=0.5;entryY=0;entryDx=0;entryDy=0;entryPerimeter=0;" edge="1" parent="1" source="jTlIyfF6Z50imKtyUBh5-62" target="jTlIyfF6Z50imKtyUBh5-75">
          <mxGeometry relative="1" as="geometry">
            <mxPoint x="1708.25" y="1534" as="targetPoint" />
          </mxGeometry>
        </mxCell>
        <mxCell id="jTlIyfF6Z50imKtyUBh5-62" value="SNS Topic" style="outlineConnect=0;dashed=0;verticalLabelPosition=bottom;verticalAlign=top;align=center;html=1;shape=mxgraph.aws3.sns;fillColor=#D9A741;gradientColor=none;" vertex="1" parent="1">
          <mxGeometry x="1670" y="1371.5" width="76.5" height="76.5" as="geometry" />
        </mxCell>
        <mxCell id="jTlIyfF6Z50imKtyUBh5-66" value="wisory service" style="rounded=0;whiteSpace=wrap;html=1;" vertex="1" parent="1">
          <mxGeometry x="1648.25" y="1678" width="120" height="60" as="geometry" />
        </mxCell>
        <mxCell id="jTlIyfF6Z50imKtyUBh5-67" value="" style="group" vertex="1" connectable="0" parent="1">
          <mxGeometry x="1850" y="1678" width="140" height="80" as="geometry" />
        </mxCell>
        <mxCell id="jTlIyfF6Z50imKtyUBh5-68" value="EventHandlers" style="rounded=0;whiteSpace=wrap;html=1;" vertex="1" parent="jTlIyfF6Z50imKtyUBh5-67">
          <mxGeometry width="120" height="60" as="geometry" />
        </mxCell>
        <mxCell id="jTlIyfF6Z50imKtyUBh5-69" value="EventHandlers" style="rounded=0;whiteSpace=wrap;html=1;" vertex="1" parent="jTlIyfF6Z50imKtyUBh5-67">
          <mxGeometry x="10" y="10" width="120" height="60" as="geometry" />
        </mxCell>
        <mxCell id="jTlIyfF6Z50imKtyUBh5-70" value="EventHandlers" style="rounded=0;whiteSpace=wrap;html=1;" vertex="1" parent="jTlIyfF6Z50imKtyUBh5-67">
          <mxGeometry x="20" y="20" width="120" height="60" as="geometry" />
        </mxCell>
        <mxCell id="jTlIyfF6Z50imKtyUBh5-71" style="edgeStyle=orthogonalEdgeStyle;rounded=0;orthogonalLoop=1;jettySize=auto;html=1;entryX=0;entryY=0.5;entryDx=0;entryDy=0;" edge="1" source="jTlIyfF6Z50imKtyUBh5-66" target="jTlIyfF6Z50imKtyUBh5-68" parent="1">
          <mxGeometry relative="1" as="geometry" />
        </mxCell>
        <mxCell id="jTlIyfF6Z50imKtyUBh5-76" value="pull" style="edgeStyle=orthogonalEdgeStyle;rounded=0;orthogonalLoop=1;jettySize=auto;html=1;" edge="1" parent="1" source="jTlIyfF6Z50imKtyUBh5-75" target="jTlIyfF6Z50imKtyUBh5-66">
          <mxGeometry relative="1" as="geometry" />
        </mxCell>
        <mxCell id="jTlIyfF6Z50imKtyUBh5-75" value="sqs queue" style="outlineConnect=0;dashed=0;verticalLabelPosition=bottom;verticalAlign=top;align=center;html=1;shape=mxgraph.aws3.queue;fillColor=#D9A741;gradientColor=none;" vertex="1" parent="1">
          <mxGeometry x="1671.5" y="1520" width="73.5" height="48" as="geometry" />
        </mxCell>
      </root>
    </mxGraphModel>
  </diagram>
</mxfile>
